/* XPM */
static char * mShogiIcon_xpm[] = {
"32 32 14 1",
" 	c None",
".	c #996633",
"+	c #CC9966",
"@	c #CCCC66",
"#	c #999966",
"$	c #666633",
"%	c #663333",
"&	c #292929",
"*	c #999933",
"=	c #222222",
"-	c #393939",
";	c #333333",
">	c #1C1C1C",
",	c #424242",
"              .....             ",
"          ...+@@@@@#$.          ",
"        %.+@@@@@@@@@@@.%        ",
"      %+@@@@@@@@@@@@@@@@+$      ",
"      +@@@@@@@@@@@@@@@@@@@.     ",
"     .+@@@@@@@@#+@@@@@@@@@%     ",
"     .@@@@@@@@@&@@@@@@@@@@%     ",
"     .@@@@@@@@@&@@@@@@@@@@.     ",
"     .@@@@@@#@@&+@@$#@@@@@.     ",
"     .@@@@@@$@@&.@$*+@@@@@#     ",
"     .@@@@@+=@+%.#+@@@@@@@%     ",
"     .@@@@@++@.$++@@@@@@@@%     ",
"    .@@@@@@@@@-+@$@@@@@@@@@%    ",
"    .@@@@@@@@;.@@+%+@@@@@@@$    ",
"    .@@@@@@+%+@@@@+&$@@@@@@$    ",
"    .@@@@@#.@@@@@@@+.@@@@@@.    ",
"    #@@@@@@@@@@@@@@@@@@@@@@#    ",
"    #@@@@@@@@@@++@@@@@@@@@@#    ",
"   .+@@@@@@@+@@$@@@+@@@@@@@@.   ",
"   .@@@@@@@@&..&...>@@@@@@@@.   ",
"   .@@@@@@@@&@@&@@@&@@@@@@@@%   ",
"   $@@@@@@@@&..>...&@@@@@@@@.   ",
"   .@@@@@@@@&@@&@@@&@@@@@@@@.   ",
"   .@@@@@@@@&.$=$.$,@@@@@@@@.   ",
"   +@@@@@@@@+@%@&@$+@@@@@@@@+   ",
"   +@@@@@@@@@+$@&+$$#+@@@@@@+   ",
"   +@@@@@@@@+%@@>$+@.#@@@@@@@.  ",
"  .@@@@@@@@+$@@@>;;;=#@@@@@@@%  ",
"  %@@@@@@@@+@@@@@@@@@@@@@@@@@%  ",
"  %@@@@@@@@@@@@@@@@@@@@@@@@@@.  ",
"  .@@@@@@@@@@@@@@@@@@@@@@@@@@.  ",
"  %..........................%  "};
